<svg xmlns="http://www.w3.org/2000/svg" viewBox="0 0 64 80" x="0px" y="0px">
    <path d="m32.88,6.11c-.54-2.05-2.88-2.89-4.32-1.22l-.96,1.11h4.4c.3,0,.6.04.88.11Z" />
    <path d="m27.6,14l.96,1.11c1.44,1.67,3.78.83,4.32-1.22-.29.06-.58.11-.88.11h-4.4Z" />
    <path d="m26,12h6c1.1,0,2-.9,2-2s-.9-2-2-2h-6c-1.1,0-2,.9-2,2s.9,2,2,2Z" />
    <path
        d="m52.78,29c.42,0,.83.09,1.22.21v-4.21c0-.55-.45-1-1-1h-28.43c-.36,0-.68-.18-.86-.49l-2.42-4.02c-.18-.31-.5-.49-.86-.49h-9.43c-.55,0-1,.45-1,1v9.21c.39-.12.8-.21,1.22-.21h41.56Zm-14.91-3c0-.55.45-1,1-1s1,.45,1,1v.5c0,.55-.45,1-1,1s-1-.45-1-1v-.5Z" />
    <path
        d="m52.78,31H11.22c-1.19,0-2.11,1.03-1.99,2.21l2.58,25c.11,1.02.97,1.79,1.99,1.79h36.4c1.02,0,1.88-.77,1.99-1.79l2.58-25c.12-1.18-.8-2.21-1.99-2.21Zm-32.03,24h-3.52c-.55,0-1-.45-1-1s.45-1,1-1h3.52c.55,0,1,.45,1,1s-.45,1-1,1Zm3.25-4h-6.77c-.55,0-1-.45-1-1s.45-1,1-1h6.77c.55,0,1,.45,1,1s-.45,1-1,1Z" />
    <path d="m38.87,11h.5c.55,0,1-.45,1-1s-.45-1-1-1h-.5c-.55,0-1,.45-1,1s.45,1,1,1Z" />
    <path
        d="m48.49,11.04c.25.04.5.12.73.22.13.06.27.09.41.09.38,0,.75-.22.91-.59.23-.5.01-1.09-.5-1.32-.39-.18-.8-.3-1.23-.37-.55-.1-1.06.28-1.15.82-.09.55.28,1.06.83,1.15Z" />
    <path
        d="m48.59,18.98s.1-.01.15-.01c.43-.07.84-.19,1.24-.36.5-.22.74-.81.52-1.32-.22-.5-.81-.74-1.32-.51-.23.1-.48.17-.74.21-.54.08-.92.59-.84,1.13.08.5.5.86.99.86Z" />
    <path
        d="m51.83,15.54s.09.01.13.01c.5,0,.93-.36,1-.87.02-.22.04-.44.04-.67,0-.21-.01-.41-.04-.61-.06-.55-.55-.95-1.11-.87-.55.07-.94.57-.87,1.12.01.12.02.24.02.36,0,.14-.01.28-.03.41-.07.55.32,1.05.86,1.12Z" />
    <path
        d="m39.51,20.53c-.23.31-.44.64-.62.98-.26.49-.08,1.1.41,1.36.15.08.31.12.47.12.35,0,.7-.19.88-.53.14-.26.3-.51.47-.75.33-.45.23-1.08-.21-1.4-.45-.33-1.07-.23-1.4.22Z" />
    <path
        d="m44.24,17.3c-.37.1-.74.22-1.11.37-.51.21-.75.79-.54,1.3.16.39.53.62.93.62.12,0,.25-.02.38-.07.27-.12.56-.21.85-.29.53-.14.85-.68.71-1.22-.14-.53-.69-.85-1.22-.71Z" />
    <path d="m43.5,11h1.03c.55,0,1-.45,1-1s-.45-1-1-1h-1.03c-.56,0-1,.45-1,1s.44,1,1,1Z" />
</svg>